<svg aria-hidden="true" style="width:0;height:0;position:absolute;overflow:hidden" xmlns="http://www.w3.org/2000/svg"><defs><symbol id="icon-arrow-left" viewBox="0 0 32 32"><path d="M25.332 17.334H6.666a1.333 1.333 0 0 1 .002-2.668h18.666a1.334 1.334 0 1 1-.002 2.668z"/><path d="M16 26.666c-.34 0-.682-.13-.942-.39l-9.334-9.334a1.33 1.33 0 0 1 0-1.884l9.334-9.334a1.333 1.333 0 0 1 1.884 1.884L8.552 16l8.39 8.388A1.335 1.335 0 0 1 16 26.666z"/></symbol><symbol id="icon-arrow-right" viewBox="0 0 32 32"><path stroke-linejoin="round" stroke-linecap="round" stroke-width="2.667" d="M6.667 16h18.667M16 25.334l9.333-9.333L16 6.668"/></symbol><symbol id="icon-sign-in" viewBox="0 0 32 32"><path d="M14 2v4l2 2V4h14v24H16v-4l-2 2v4h18V2z"/><path d="M20 16 10 8v4H0v8h10v4z"/></symbol><symbol id="icon-sign-out" viewBox="0 0 32 32"><path d="M18 8V2H0v28h18v-6h-2v4H2V4h14v4z"/><path d="M32 16 22 8v4H12v8h10v4z"/></symbol><symbol id="icon-heart" viewBox="0 0 14 13" fill="none" xmlns="http://www.w3.org/2000/svg"><path d="m7 12.88-.98-.98C2.38 8.68 0 6.51 0 3.85 0 1.68 1.68 0 3.85 0 5.04 0 6.23.56 7 1.47 7.77.56 8.96 0 10.15 0 12.32 0 14 1.68 14 3.85c0 2.66-2.38 4.83-6.02 8.05l-.98.98Z" fill="#FF6B08"/></symbol><symbol id="icon-close" viewBox="0 0 32 32"><path d="m26.667 7.303-1.97-1.97-7.808 7.808-7.808-7.808-1.97 1.97 7.808 7.808-7.808 7.808 1.97 1.97 7.808-7.808 7.808 7.808 1.97-1.97-7.808-7.808 7.808-7.808z"/></symbol></defs></svg>