<svg aria-hidden="true" style="position: absolute; width: 0; height: 0; overflow: hidden;" version="1.1" xmlns="http://www.w3.org/2000/svg" xmlns:xlink="http://www.w3.org/1999/xlink">
<defs>
<symbol id="icon-arrow-left" viewBox="0 0 32 32">
<path d="M25.332 17.334h-18.666c-0.736 0-1.332-0.598-1.332-1.334s0.596-1.334 1.334-1.334h18.666c0.736 0 1.334 0.596 1.334 1.334s-0.6 1.334-1.336 1.334z"></path>
<path d="M16 26.666c-0.34 0-0.682-0.13-0.942-0.39l-9.334-9.334c-0.25-0.25-0.39-0.588-0.39-0.942s0.14-0.692 0.39-0.942l9.334-9.334c0.52-0.522 1.366-0.522 1.884 0 0.52 0.52 0.52 1.364 0 1.884l-8.39 8.392 8.39 8.388c0.52 0.522 0.52 1.366 0 1.886-0.26 0.262-0.602 0.392-0.942 0.392z"></path>
</symbol>
<symbol id="icon-arrow-right" viewBox="0 0 32 32">
<path stroke-linejoin="round" stroke-linecap="round" stroke-miterlimit="4" stroke-width="2.6667" d="M6.667 16h18.667"></path>
<path stroke-linejoin="round" stroke-linecap="round" stroke-miterlimit="4" stroke-width="2.6667" d="M16 25.334l9.333-9.333-9.333-9.333"></path>
</symbol>
<symbol id="icon-sign-in" viewBox="0 0 32 32">
<path d="M14 2v4l2 2v-4h14v24h-14v-4l-2 2v4h18v-28z"></path>
<path d="M20 16l-10-8v4h-10v8h10v4z"></path>
</symbol>
<symbol id="icon-sign-out" viewBox="0 0 32 32">
<path d="M18 8v-6h-18v28h18v-6h-2v4h-14v-24h14v4z"></path>
<path d="M32 16l-10-8v4h-10v8h10v4z"></path>
</symbol>
<symbol id="icon-heart" viewBox="0 0 14 13" fill="none" xmlns="http://www.w3.org/2000/svg">
<path d="M7 12.88L6.02 11.9C2.38 8.68 0 6.51 0 3.85C0 1.68 1.68 0 3.85 0C5.04 0 6.23 0.56 7 1.47C7.77 0.56 8.96 0 10.15 0C12.32 0 14 1.68 14 3.85C14 6.51 11.62 8.68 7.98 11.9L7 12.88Z" fill="#FF6B08"/>
</symbol>
<symbol id="icon-close" viewBox="0 0 32 32">
<path d="M26.667 7.303l-1.97-1.97-7.808 7.808-7.808-7.808-1.97 1.97 7.808 7.808-7.808 7.808 1.97 1.97 7.808-7.808 7.808 7.808 1.97-1.97-7.808-7.808 7.808-7.808z"></path>
</symbol>
</defs>
</svg>
